<?xml version="1.0" encoding="utf-8"?>
<!-- Generator: Adobe Illustrator 15.0.2, SVG Export Plug-In . SVG Version: 6.00 Build 0)  -->
<!DOCTYPE svg PUBLIC "-//W3C//DTD SVG 1.1//EN" "http://www.w3.org/Graphics/SVG/1.1/DTD/svg11.dtd">
<svg version="1.1" id="Layer_1" xmlns="http://www.w3.org/2000/svg" xmlns:xlink="http://www.w3.org/1999/xlink" x="0px" y="0px"
	 width="500px" height="260px" viewBox="0 0 500 260" enable-background="new 0 0 500 260" xml:space="preserve">
<g>
	<path fill="#DEDFE0" d="M483.046,112.558c1.446-4.483,2.92-9.276,4.447-14.374c1.519-5.094,2.848-9.882,3.988-14.374
		c1.142-4.483,1.636-7.335,1.49-8.552c-0.313-1.213-1.112-2.399-2.397-3.54c-1.294-1.141-2.775-2.048-4.447-2.736
		c-1.68-0.683-3.314-1.101-4.904-1.253c-1.6-0.148-2.704,0.152-3.314,0.912c-0.449,0.611-0.871,2.053-1.249,4.334
		c-0.386,2.282-0.691,5.018-0.916,8.216c-0.226,3.189-0.449,6.693-0.684,10.493c-0.232,3.8-0.387,7.452-0.458,10.951
		s-0.071,6.693,0,9.581c0.071,2.893,0.188,5.018,0.342,6.387c0.306,3.958,1.023,5.934,2.165,5.934s2.175-1.141,3.082-3.423
		C480.647,119.898,481.591,117.045,483.046,112.558 M380.838,124.992c0.226,2.74-0.609,5.668-2.506,8.781
		c-1.905,3.121-4.564,5.975-7.987,8.558c-3.423,2.588-7.113,3.881-11.066,3.881c-0.307-5.321-0.765-10.114-1.365-14.374
		c2.587-3.8,5.39-6.729,8.436-8.786c3.046-2.048,6.162-2.924,9.36-2.619C378.897,120.733,380.613,122.256,380.838,124.992
		 M334.068,217.848c-0.684-4.259-0.603-9.963,0.225-17.108c0.845-7.156,2.399-15.134,4.681-23.955
		c2.282-8.818,5.015-17.263,8.212-25.33c0.765,7.155,1.293,14.606,1.6,22.36c0.126,3.318-0.036,11.558-0.226,16.992
		c-0.081,2.184-0.161,3.912-0.232,4.682c-0.332,3.615-0.781,6.962-1.349,10.043c-0.484,2.623-1.061,5.059-1.733,7.3
		c-1.438,4.864-3.53,7.981-6.271,9.349C336.387,223.552,334.752,222.102,334.068,217.848 M342.738,125.791
		c1.141,4.335,2.165,9.396,3.081,15.174c-4.259,6.994-8.06,14.45-11.409,22.355c-3.342,7.91-6.118,15.668-8.328,23.271
		c-2.201,7.602-3.719,14.672-4.563,21.217c-0.835,6.539-0.8,11.861,0.117,15.973c0.916,4.101,2.82,6.688,5.704,7.753
		c2.894,1.063,6.998-0.076,12.316-3.423c3.801-2.43,7.035-6.389,9.693-11.858c1.546-3.181,2.91-6.612,4.098-10.3
		c0.861-2.668,1.626-5.477,2.299-8.409c0.432-1.896,0.818-3.817,1.178-5.771c0.952-5.287,1.617-10.816,2.012-16.59
		c0.53-7.904,0.72-15.662,0.566-23.268c4.114-0.152,8.139-1.258,12.102-3.311c3.943-2.054,7.527-4.597,10.718-7.642
		c3.198-3.041,5.856-6.312,7.985-9.812c2.131-3.499,3.424-6.804,3.872-9.926c0.469-3.118-0.07-5.777-1.59-7.987
		c-1.526-2.201-4.259-3.454-8.211-3.764c-4.717-0.301-9.396,0.993-14.033,3.881c-4.645,2.893-9.163,6.922-13.573,12.092
		c-1.069-5.17-2.281-9.469-3.656-12.892c-1.365-3.418-2.956-5.592-4.788-6.5c-1.365-0.611-2.776-0.647-4.223-0.117
		c-1.438,0.535-2.695,1.406-3.765,2.628c-1.061,1.217-1.743,2.583-2.049,4.101c-0.306,1.523,0,2.893,0.916,4.11
		C340.42,118.452,341.598,121.457,342.738,125.791 M294.262,137.425c-0.609-3.112-0.232-6.423,1.143-9.927
		c1.212-3.495,2.884-5.776,5.013-6.841c2.129-1.065,4.258-1.218,6.387-0.458c2.14,0.764,3.612,2.282,4.456,4.564
		c0.836,2.282,0.719,4.945-0.341,7.986c-1.222,3.499-3.046,6.315-5.479,8.44c-2.436,2.134-4.717,2.819-6.847,2.057
		C296.311,142.486,294.864,140.547,294.262,137.425 M297.568,113.699c-4.789,1.141-8.858,3.917-12.2,8.328
		c-3.351,4.411-4.914,9.051-4.681,13.92c0.225,4.863,2.088,8.664,5.588,11.404c1.824,1.365,3.8,2.246,5.93,2.623
		c2.129,0.383,4.294,0.307,6.504-0.229c2.201-0.53,4.366-1.518,6.504-2.965c2.12-1.441,4.025-3.233,5.705-5.363
		c0.907-1.213,1.518-2.129,1.823-2.734c0.755,3.498,2.282,6.006,4.563,7.527c4.249,2.588,8.363,3.387,12.316,2.395
		c3.953-0.987,6.998-2.775,9.127-5.358c1.968-2.587,3.423-4.752,4.33-6.504c0.917-1.747,1.671-3.688,2.282-5.821
		c0.61-2.125,0.27-3.306-1.024-3.531c-1.293-0.229-2.245,0.49-2.855,2.165c-0.449,1.523-1.249,3.27-2.391,5.25
		c-1.141,1.978-2.397,3.801-3.765,5.471c-0.765,0.765-1.6,1.334-2.516,1.713c-0.907,0.382-1.788,0.453-2.624,0.229
		c-0.835-0.229-1.59-0.8-2.271-1.711c-0.691-0.912-1.105-2.201-1.258-3.881c-0.307-1.973-0.342-3.684-0.117-5.135
		c0.234-1.438,0.459-2.695,0.684-3.76c0.233-1.064,0.377-1.94,0.458-2.623c0.081-0.688-0.107-1.33-0.575-1.94
		c-0.906-1.213-2.507-2.242-4.787-3.082c-2.273-0.835-4.26-0.647-5.931,0.571c-0.306,0.305-0.575,0.61-0.8,0.916
		c-0.224,0.301-0.493,0.759-0.799,1.366c-0.907-2.884-2.507-5.247-4.788-7.07C306.498,113.281,302.356,112.558,297.568,113.699
		 M262.896,114.952c-0.84-1.213-3.006-1.442-6.506-0.683c-3.498,0.912-6.125,1.253-7.869,1.029
		c-1.752-0.229-2.853-0.571-3.306-1.029c1.062-3.037,1.743-5.853,2.05-8.445c0.303-2.578-0.382-4.635-2.05-6.158
		c-0.917-0.759-2.019-1.06-3.313-0.912c-1.291,0.152-2.621,0.611-3.993,1.37c-1.365,0.764-2.585,1.824-3.647,3.194
		c-1.062,1.366-1.747,2.969-2.055,4.788c-0.303,1.986-0.032,4.034,0.799,6.163c0.838,2.134,2.7,3.805,5.59,5.022
		c-0.456,1.671-0.912,3.418-1.368,5.247c-0.458,1.819-0.914,3.499-1.37,5.017c-0.606,1.976-0.263,3.077,1.026,3.306
		c1.292,0.232,2.318-0.57,3.082-2.395c0.303-0.912,0.716-2.318,1.255-4.218c0.53-1.9,1.098-3.841,1.711-5.817
		c1.215,0.148,2.581,0.265,4.103,0.336c1.523,0.081,3.196-0.036,5.022-0.336c-2.283,2.277-4.188,4.829-5.703,7.636
		c-1.523,2.821-2.628,5.597-3.313,8.333c-0.681,2.736-0.91,5.358-0.681,7.869c0.225,2.512,0.948,4.528,2.167,6.043
		c1.669,2.281,4.029,3.695,7.069,4.227c3.041,0.529,6.273,0.337,9.692-0.57c3.423-0.912,6.847-2.471,10.269-4.681
		c3.422-2.201,6.274-4.824,8.558-7.87c1.217-1.671,2.28-3.306,3.192-4.904c0.918-1.6,1.672-3.459,2.282-5.593
		c0.306-1.06,0.306-1.855,0-2.39c-0.306-0.535-0.683-0.876-1.141-1.033c-0.454-0.144-0.988-0.031-1.591,0.346
		c-0.615,0.382-0.998,0.953-1.141,1.711c-1.228,3.804-3.279,7.071-6.168,9.81c-1.818,1.824-3.805,3.006-5.93,3.535
		c-2.134,0.539-4.146,0.683-6.051,0.457c-1.896-0.229-3.53-0.758-4.9-1.599c-1.369-0.831-2.281-1.858-2.734-3.077
		c-0.611-1.519-0.916-3.27-0.916-5.25c0-1.973,0.305-3.949,0.916-5.935c0.605-1.972,1.4-3.795,2.397-5.471
		c0.979-1.671,2.084-2.888,3.306-3.652C263.312,117.311,263.727,116.169,262.896,114.952 M193.083,128.302
		c-0.837,1.904-1.334,3.571-1.482,5.017c-0.155,1.447,0.148,2.512,0.912,3.195c0.759,0.682,1.9,0.493,3.42-0.566
		c3.497-2.436,7.755-4.34,12.779-5.705c5.018-1.37,9.35-2.206,13.002-2.511c1.828-0.152,3.115-0.646,3.879-1.482
		c0.759-0.835,1.098-1.748,1.026-2.74c-0.079-0.988-0.571-1.824-1.482-2.506c-0.914-0.688-2.134-1.029-3.652-1.029
		c-1.366,0-3.191,0.081-5.474,0.225c-2.282,0.157-4.678,0.346-7.189,0.57c-2.506,0.234-4.867,0.571-7.07,1.029
		c-2.208,0.458-3.845,1.064-4.907,1.824C195.169,124.843,193.914,126.402,193.083,128.302"/>
	<path fill="#DEDFE0" d="M462.968,127.386c-1.294-0.229-2.246,0.499-2.849,2.169c-0.458,1.523-1.222,3.576-2.281,6.159
		c-1.069,2.587-2.363,4.64-3.881,6.163c-0.764,0.759-1.788,1.365-3.082,1.823c-1.293,0.458-2.551,0.342-3.764-0.343
		c-1.213-0.687-2.201-2.205-2.966-4.562c-0.764-2.354-0.836-6.046-0.232-11.068c0.306-2.884,0.232-5.776-0.226-8.665
		c-0.448-2.889-1.519-4.793-3.188-5.705c-1.68-0.916-3.692-1.028-6.046-0.346c-2.363,0.688-4.762,1.869-7.188,3.54
		c-2.435,1.676-4.833,3.729-7.187,6.159c-2.362,2.439-4.375,4.869-6.046,7.299c-0.458-4.253-0.684-8.894-0.684-13.911
		c0.01-0.014,0.019-0.027,0.026-0.031l-0.215-6.289l0.044-0.148c-0.026,0.022-0.054,0.054-0.089,0.077
		c-0.153-8.669,0.116-17.527,0.799-26.574c0.683-9.051,1.635-17.379,2.857-24.988c1.213-7.604,2.767-13.952,4.671-19.045
		c1.904-5.098,3.998-7.951,6.279-8.557c1.877-0.413,3.368,0.027,4.491,1.294l14.617-4.052c-0.216-3.225-0.701-6.068-1.546-8.422
		c-1.374-3.8-3.729-5.705-7.07-5.705c-4.716,0-9.055,2.74-13.008,8.216c-3.953,5.471-7.492,12.474-10.61,20.986
		c-3.117,8.525-5.739,17.95-7.869,28.294c-2.13,10.345-3.691,20.456-4.672,30.338c-0.997,9.891-1.374,18.866-1.141,26.924
		c0.225,8.062,1.096,14.068,2.623,18.025c0.449,1.061,1.438,1.789,2.965,2.166c1.518,0.381,3.081,0.457,4.681,0.225
		c1.591-0.225,2.965-0.831,4.105-1.818c1.141-0.988,1.481-2.318,1.022-3.994c-0.609-1.977-0.996-3.881-1.141-5.705
		c1.062-2.28,2.471-4.64,4.214-7.073c1.751-2.43,3.503-4.254,5.255-5.471c1.743-1.222,3.189-1.604,4.33-1.141
		c1.143,0.454,1.563,2.435,1.258,5.929c-0.306,3.194-0.151,6.467,0.458,9.81c0.604,3.347,2.427,6.157,5.473,8.44
		c1.823,1.521,3.764,2.435,5.821,2.734c2.048,0.311,4.061,0.27,6.046-0.107c1.977-0.381,3.765-1.104,5.362-2.174
		c1.59-1.061,2.92-2.201,3.989-3.419c1.977-2.583,3.458-5.021,4.446-7.304c0.988-2.277,1.716-4.482,2.165-6.612
		C464.603,128.796,464.261,127.619,462.968,127.386"/>
	<path fill="#DEDFE0" d="M427.203,22.784c7.852-2.56,0.439-12.91,0.439-12.91c12.848,17.631,8.651,9.222,8.651,9.222L427.203,22.784
		z"/>
	<path fill="#DEDFE0" d="M430.267,20.291c5.066-7.205,4.069-11.535,4.069-11.535c2.83,14.463,2.552,11.872,2.552,11.872
		L430.267,20.291z"/>
	<path fill="#DEDFE0" d="M469.014,152.257c1.823,1.752,4.024,2.619,6.611,2.619c2.894,0,5.247-0.867,7.08-2.619
		c1.823-1.751,2.729-3.764,2.729-6.046c0-2.129-0.906-3.993-2.729-5.592c-1.833-1.596-4.188-2.395-7.08-2.395
		c-2.587,0-4.788,0.799-6.611,2.395c-1.823,1.599-2.739,3.463-2.739,5.592C466.273,148.493,467.189,150.506,469.014,152.257"/>
	<path fill="#DEDFE0" d="M426.377,10.93c0.341,0.319,0.745,0.48,1.222,0.48c0.53,0,0.971-0.162,1.304-0.48
		c0.341-0.323,0.512-0.696,0.512-1.114c0-0.396-0.171-0.737-0.512-1.033c-0.333-0.292-0.772-0.44-1.304-0.44
		c-0.477,0-0.881,0.148-1.222,0.44c-0.333,0.296-0.503,0.638-0.503,1.033C425.874,10.233,426.044,10.606,426.377,10.93"/>
	<path fill="#DEDFE0" d="M433.339,10.274c0.153,0.278,0.387,0.462,0.701,0.552c0.341,0.108,0.646,0.09,0.934-0.054
		c0.279-0.139,0.459-0.346,0.539-0.62c0.081-0.256,0.045-0.507-0.116-0.763c-0.161-0.261-0.412-0.44-0.755-0.543
		c-0.313-0.099-0.602-0.077-0.88,0.045c-0.27,0.125-0.449,0.314-0.521,0.566C433.15,9.73,433.188,10,433.339,10.274"/>
	<path fill="#DEDFE0" d="M432.225,31.884c3.773,5.723,9.954,5.449,9.954,5.449c4.808-0.279,4.618-9.599,4.618-9.599l-7.223-1.846
		L432.225,31.884z"/>
	<path fill="#DEDFE0" d="M413.107,100.349c0.539,9.478,3.432,14.145,3.432,14.145c1.923,3.297,6.451,2.129,6.451,2.129
		c4.258-0.889,8.93-2.677,8.93-2.677l2.74,3.787l-10.871,3.903l-4.231,4.811l-5.768,6.452l-6.45-2.746L413.107,100.349z"/>
	<path fill="#DEDFE0" d="M196.634,52.385c-4.059,0.943-9.514,1.33-16.375,1.159c-6.863-0.166-14.803-0.772-23.813-1.806
		c-9.015-1.033-18.315-2.066-27.906-3.1c6.614-3.266,14.098-5.979,22.45-8.13c8.351-2.152,16.247-3.396,23.69-3.747
		c7.44-0.341,13.808,0.22,19.102,1.68c5.289,1.464,8.099,4.177,8.431,8.13C202.542,49.501,200.681,51.442,196.634,52.385
		 M89.103,208.046c-0.829-6.108-0.166-13.085,1.981-20.909c2.149-7.828,5.709-16.221,10.668-25.173
		c4.961-8.942,11.162-17.68,18.605-26.196c7.44-8.521,16.038-16.524,25.794-24.014c9.756-7.483,20.505-13.718,32.247-18.713
		c0,10.498-1.323,21.426-3.969,32.786c-2.646,11.354-6.201,22.368-10.666,33.042c-4.462,10.673-9.549,20.562-15.252,29.688
		c-5.709,9.123-11.625,16.691-17.738,22.719c-6.12,6.021-12.155,10.104-18.109,12.265c-5.952,2.146-11.329,1.5-16.122-1.94
		C92.409,218.67,89.925,214.154,89.103,208.046 M43.708,132.277c-4.467-2.232-8.229-5.633-11.288-10.196
		c-3.059-4.56-5.206-9.94-6.448-16.135c-1.237-6.194-1.201-12.429,0.124-18.718c1.321-6.275,4.13-12.258,8.436-17.936
		c4.296-5.682,10.498-10.327,18.601-13.943c5.788-2.578,12.815-4.132,21.085-4.645c8.265-0.517,17.199-0.427,26.79,0.256
		c-6.284,4.308-10.911,9.033-13.891,14.199c-2.976,5.161-3.556,10.672-1.734,16.521c1.154,3.616,4.218,6.455,9.174,8.521
		c4.964,2.066,11.495,3.14,19.601,3.225c8.101,0.09,17.525-0.858,28.274-2.839c10.749-1.977,22.489-5.202,35.225-9.685
		c0.164,1.213,0.29,2.372,0.373,3.49c0.081,1.119,0.124,2.277,0.124,3.486c-14.057,5.507-27.163,12.824-39.317,21.938
		c-12.153,9.127-22.985,19.068-32.494,29.823c-9.512,10.752-17.527,21.856-24.061,33.297c-6.536,11.445-11.079,22.199-13.642,32.271
		c-2.567,10.065-2.976,18.929-1.242,26.592c1.738,7.654,6.075,13.206,13.022,16.647c6.284,3.099,12.566,3.957,18.854,2.582
		c6.282-1.379,12.4-4.354,18.356-8.907c5.952-4.56,11.697-10.416,17.24-17.554c5.539-7.144,10.828-14.932,15.874-23.362
		c5.04-8.437,9.714-17.253,14.015-26.462c4.297-9.203,8.189-18.066,11.661-26.588c3.472-8.516,6.484-16.479,9.051-23.878
		c2.563-7.398,4.591-13.512,6.078-18.331c0.993-3.612,1.985-7.012,2.976-10.192c0.993-3.185,1.9-6.154,2.731-8.912
		c12.402-3.441,25.464-4.901,39.189-4.389c1.154,0,2.189-0.166,3.102-0.512c0.905-0.346,1.449-0.732,1.612-1.163
		c0.162-0.431-0.087-0.858-0.743-1.289c-0.663-0.427-1.905-0.732-3.722-0.908c-6.614-0.512-13.064-0.467-19.346,0.13
		c-6.289,0.606-12.487,1.595-18.605,2.969c2.81-9.635,4.052-15.704,3.722-18.201c-0.333-2.493-3.142-2.017-8.438,1.424
		c-2.313,1.55-5.786,3.315-10.417,5.287c-4.628,1.985-9.796,3.832-15.501,5.552c-5.705,1.721-11.618,3.145-17.736,4.263
		c-6.118,1.119-11.825,1.676-17.116,1.676c-5.294,0-9.92-0.777-13.891-2.322c-3.969-1.55-6.614-4.128-7.937-7.744
		c-1.325-3.441-0.953-6.751,1.116-9.94c2.066-3.185,5.166-6.149,9.3-8.903c11.082,1.204,22.037,2.448,32.869,3.742
		c10.828,1.289,20.377,1.936,28.651,1.936c8.265,0,14.798-0.943,19.596-2.843c4.793-1.891,6.778-5.417,5.952-10.583
		c-0.663-3.782-2.816-6.792-6.448-9.033c-3.639-2.237-8.229-3.827-13.768-4.775c-5.543-0.943-11.785-1.293-18.731-1.033
		c-6.944,0.256-14.055,1.074-21.327,2.448c-7.281,1.383-14.475,3.279-21.581,5.682c-7.113,2.417-13.561,5.251-19.351,8.521
		C96.3,45.971,85.591,45.629,75.585,45.8c-10.008,0.171-18.315,1.465-24.93,3.872c-7.441,2.758-13.932,6.455-19.47,11.1
		c-5.543,4.649-10.17,9.855-13.891,15.618c-3.722,5.768-6.448,11.836-8.187,18.201c-1.734,6.369-2.401,12.563-1.983,18.587
		c0.409,6.024,1.941,11.706,4.586,17.038s6.448,9.81,11.412,13.423c4.963,3.614,9.673,5.768,14.14,6.449
		c4.465,0.691,8.389,0.521,11.778-0.513c3.391-1.033,6.284-2.623,8.685-4.774c2.396-2.146,4.047-4.173,4.963-6.068
		c0.905-1.892,0.988-3.44,0.243-4.645c-0.739-1.199-2.354-1.465-4.833-0.777C52.966,134.859,48.173,134.52,43.708,132.277"/>
	<path fill="#DEDFE0" d="M348.326,195.491c-0.332,3.61-0.781,6.958-1.349,10.038c-0.493,2.625-1.068,5.055-1.733,7.296
		c0,0,1.447,8.903,4.105,3.423c1.545-3.176,2.91-6.604,4.098-10.295c0.861-2.674,1.626-5.473,2.299-8.413 M355.746,197.54
		c0.432-1.888,0.818-3.81,1.178-5.772c0.952-5.281,1.626-10.812,2.012-16.584c0,0-10.457-9.127-10.15-1.365
		c0.126,3.314-0.036,11.559-0.226,16.983c-0.081,2.188-0.161,3.917-0.232,4.689"/>
	<path fill="#DEDFE0" d="M390.424,78.496c-0.458,0-0.845,0.167-1.177,0.494c-0.323,0.328-0.478,0.719-0.478,1.168
		c0,0.458,0.153,0.849,0.478,1.177c0.332,0.324,0.719,0.485,1.177,0.485c0.467,0,0.854-0.162,1.177-0.485
		c0.323-0.328,0.485-0.719,0.485-1.177s-0.162-0.854-0.485-1.177C391.278,78.658,390.891,78.496,390.424,78.496"/>
	<path fill="#DEDFE0" d="M321.097,78.496c-0.458,0-0.845,0.167-1.177,0.494c-0.324,0.328-0.485,0.719-0.485,1.168
		c0,0.458,0.161,0.849,0.485,1.177c0.332,0.324,0.719,0.485,1.177,0.485s0.854-0.162,1.178-0.485
		c0.322-0.328,0.483-0.719,0.483-1.177s-0.161-0.854-0.483-1.177C321.951,78.658,321.555,78.496,321.097,78.496"/>
	<path fill="#DEDFE0" d="M288.529,78.496c-0.467,0-0.854,0.167-1.176,0.494c-0.324,0.328-0.485,0.719-0.485,1.168
		c0,0.458,0.161,0.849,0.485,1.177c0.322,0.324,0.709,0.485,1.176,0.485c0.459,0,0.846-0.162,1.178-0.485
		c0.322-0.328,0.484-0.719,0.484-1.177s-0.162-0.854-0.484-1.177C289.375,78.658,288.988,78.496,288.529,78.496"/>
	<path fill="#DEDFE0" d="M252.975,78.496c-0.459,0-0.851,0.167-1.177,0.494c-0.323,0.328-0.481,0.719-0.481,1.168
		c0,0.458,0.158,0.849,0.481,1.177c0.326,0.324,0.718,0.485,1.177,0.485c0.461,0,0.853-0.162,1.178-0.485
		c0.324-0.328,0.482-0.719,0.482-1.177s-0.158-0.854-0.482-1.177C253.826,78.658,253.436,78.496,252.975,78.496"/>
	<path fill="#F26531" d="M435.062,18.27c-0.528-0.05-0.528,0.197-0.528,0.364c-0.252,2.655-0.207,5.417,0.062,6.055
		c1.833-0.265,3.665-0.512,5.498-0.746c-0.018-0.004,0.332-0.152,0.513-0.795c0.313-1.442,0.629-2.825,0.942-4.164
		c-0.035,0.054-0.035-0.117-0.054-0.162c-0.081,0.014-0.161,0.021-0.242,0.036c-2.058-0.193-4.115-0.391-6.181-0.584
		C435.073,18.274,435.062,18.274,435.062,18.27 M434.462,26.983h-0.036c-0.386,0.032-0.728-0.175-0.988-0.615
		c-0.942-1.622-0.584-6.616-0.448-8.027c-0.009-1.527,0.8-2.52,2.004-2.313c2.093,0.337,4.178,0.678,6.262,1.015
		c0.009-0.013,0.126,0,0.233,0.014c0.61,0.104,0.979,0.463,1.177,0.746c0.494,0.674,0.422,1.482,0.404,1.64
		c-0.323,1.32-0.646,2.69-0.979,4.114c-0.404,1.442-1.365,2.103-1.877,2.255C438.298,26.188,436.376,26.575,434.462,26.983"/>
	<path fill="#F26531" d="M443.355,19.038c-0.026,0.013-0.026,0.175-0.026,0.22c0.216,1.275,0.422,2.52,0.638,3.728
		c0.117,0.507,0.352,0.58,0.404,0.588c1.229-0.045,2.462-0.108,3.691-0.17c0.188-0.427,0.217-2.031,0.055-3.553
		c-0.009-0.193-0.009-0.337-0.323-0.368c-1.429-0.135-2.848-0.274-4.276-0.409C443.464,19.064,443.41,19.051,443.355,19.038
		 M448.162,24.756c-0.009,0-0.019,0-0.027,0c-1.284,0.157-2.567,0.305-3.861,0.436c-0.396-0.009-1.042-0.355-1.321-1.653
		c-0.215-1.312-0.439-2.659-0.655-4.038c-0.027-0.283-0.081-1.141,0.261-1.711c0.161-0.283,0.458-0.588,1.042-0.354
		c1.385,0.215,2.759,0.436,4.143,0.656l0,0c0.88,0.152,1.428,0.858,1.428,1.752c0.09,0.732,0.333,3.31-0.314,4.361
		c-0.17,0.296-0.403,0.485-0.674,0.548C448.171,24.751,448.171,24.756,448.162,24.756"/>
	<path fill="#F26531" d="M384.53,82.022c0,0.485-0.145,0.854-0.44,1.105s-0.709,0.382-1.248,0.382c-0.575,0-1.213-0.153-1.914-0.454
		c-0.151-0.072-0.306-0.104-0.467-0.104c-0.216,0-0.387,0.072-0.512,0.211c-0.126,0.144-0.198,0.323-0.198,0.539
		c0,0.333,0.153,0.562,0.458,0.692c0.881,0.373,1.761,0.557,2.633,0.557c0.979,0,1.771-0.296,2.371-0.885
		c0.594-0.584,0.891-1.33,0.891-2.232c0-0.714-0.188-1.276-0.575-1.689c-0.396-0.414-0.916-0.764-1.6-1.06l-1.671-0.737
		c-0.313-0.148-0.548-0.31-0.701-0.494c-0.151-0.188-0.225-0.445-0.225-0.764c0-0.454,0.162-0.782,0.503-0.993
		c0.342-0.202,0.729-0.306,1.168-0.306c0.226,0,0.44,0.014,0.629,0.032c0.189,0.018,0.359,0.045,0.521,0.085
		c0.151,0.04,0.277,0.076,0.368,0.103c0.09,0.032,0.188,0.072,0.313,0.126c0.117,0.054,0.197,0.085,0.225,0.094
		c0.091,0.041,0.181,0.059,0.278,0.059c0.207,0,0.378-0.067,0.521-0.207c0.144-0.135,0.215-0.301,0.215-0.494
		c0-0.337-0.188-0.583-0.574-0.75c-0.737-0.328-1.546-0.489-2.417-0.489c-0.89,0-1.662,0.265-2.327,0.781
		c-0.664,0.521-1.006,1.199-1.006,2.03c0,1.19,0.584,2.044,1.734,2.538l1.77,0.781C384.108,80.863,384.53,81.38,384.53,82.022
		 M373.273,83.9c0.691,0.701,1.616,1.051,2.749,1.051c0.79,0,1.546-0.233,2.265-0.692c0.232-0.157,0.35-0.373,0.35-0.647
		c0-0.202-0.07-0.377-0.215-0.521s-0.324-0.211-0.53-0.211c-0.144,0-0.287,0.041-0.432,0.13c-0.521,0.332-1.006,0.499-1.438,0.499
		c-0.709,0-1.258-0.211-1.645-0.638c-0.396-0.427-0.593-1.002-0.593-1.725v-2.987c0-0.728,0.197-1.302,0.593-1.729
		c0.387-0.422,0.936-0.638,1.645-0.638c0.448,0,0.935,0.167,1.456,0.485c0.135,0.081,0.27,0.117,0.395,0.117
		c0.216,0,0.404-0.067,0.549-0.211s0.215-0.314,0.215-0.508c0-0.265-0.115-0.472-0.35-0.633c-0.719-0.458-1.474-0.691-2.265-0.691
		c-1.133,0-2.058,0.35-2.749,1.055c-0.691,0.696-1.042,1.617-1.042,2.753v2.987C372.231,82.283,372.582,83.195,373.273,83.9
		 M369.016,84.722c0.152,0.153,0.343,0.229,0.558,0.229c0.207,0,0.387-0.076,0.539-0.229c0.162-0.148,0.232-0.333,0.232-0.548
		v-9.042c0-0.215-0.07-0.4-0.232-0.548c-0.152-0.153-0.332-0.233-0.539-0.233c-0.215,0-0.404,0.081-0.558,0.233
		c-0.151,0.148-0.225,0.333-0.225,0.548v9.042C368.791,84.39,368.863,84.574,369.016,84.722 M365.323,84.722
		c0.162,0.153,0.342,0.229,0.557,0.229c0.216,0,0.396-0.076,0.548-0.229c0.146-0.148,0.216-0.333,0.216-0.548v-9.042
		c0-0.215-0.07-0.4-0.225-0.548c-0.152-0.153-0.332-0.233-0.548-0.233s-0.404,0.081-0.557,0.233
		c-0.153,0.148-0.226,0.333-0.226,0.548v3.584h-3.817v-3.584c0-0.215-0.081-0.4-0.233-0.548c-0.162-0.153-0.342-0.233-0.548-0.233
		c-0.216,0-0.404,0.081-0.559,0.233c-0.151,0.148-0.225,0.333-0.225,0.548v9.042c0,0.216,0.081,0.4,0.234,0.548
		c0.16,0.153,0.35,0.229,0.557,0.229s0.386-0.076,0.539-0.229c0.152-0.148,0.232-0.333,0.232-0.548v-3.971h3.818v3.971
		C365.09,84.39,365.171,84.574,365.323,84.722 M353.123,75.985h1.851c0.503,0,0.891,0.148,1.159,0.44
		c0.261,0.296,0.404,0.701,0.404,1.222c0,0.579-0.152,0.988-0.449,1.226c-0.306,0.238-0.674,0.359-1.114,0.359h-1.851V75.985
		L353.123,75.985z M351.794,84.722c0.152,0.153,0.332,0.229,0.548,0.229c0.207,0,0.387-0.076,0.548-0.229
		c0.153-0.148,0.233-0.333,0.233-0.548V80.72h1.851c0.943,0,1.698-0.283,2.266-0.84c0.574-0.562,0.854-1.307,0.854-2.232
		c0-0.943-0.288-1.703-0.862-2.277c-0.584-0.58-1.329-0.872-2.256-0.872h-2.451c-0.262,0-0.485,0.094-0.675,0.283
		c-0.188,0.184-0.277,0.404-0.277,0.66v8.732C351.569,84.39,351.641,84.574,351.794,84.722 M344.85,80.733l1.275-3.558l1.285,3.558
		H344.85z M349.449,84.951c0.216,0,0.396-0.076,0.548-0.229c0.144-0.148,0.216-0.328,0.216-0.535c0-0.09-0.01-0.171-0.045-0.251
		l-3.234-9.011c-0.054-0.166-0.161-0.301-0.313-0.413c-0.152-0.104-0.314-0.162-0.494-0.162c-0.171,0-0.342,0.058-0.494,0.162
		c-0.151,0.112-0.252,0.242-0.306,0.399l-3.233,9.024c-0.036,0.09-0.045,0.17-0.045,0.251c0,0.216,0.071,0.396,0.215,0.539
		c0.146,0.148,0.324,0.225,0.53,0.225c0.351,0,0.593-0.166,0.719-0.499l0.81-2.237h3.61l0.801,2.237
		C348.856,84.785,349.099,84.951,349.449,84.951 M336.108,75.985h2.129c0.458,0,0.816,0.144,1.068,0.431
		c0.261,0.292,0.387,0.661,0.387,1.109c0,0.543-0.145,0.921-0.423,1.141c-0.277,0.22-0.619,0.334-1.032,0.334h-2.129V75.985z
		 M340.528,84.951c0.206,0,0.386-0.076,0.539-0.229c0.151-0.148,0.225-0.324,0.225-0.521c0-0.14-0.036-0.27-0.117-0.396
		l-2.048-3.427c0.512-0.135,0.943-0.368,1.284-0.692c0.558-0.539,0.836-1.258,0.836-2.161s-0.278-1.635-0.854-2.206
		c-0.548-0.543-1.267-0.822-2.155-0.822h-2.74c-0.261,0-0.485,0.094-0.674,0.283c-0.181,0.184-0.278,0.404-0.278,0.66v8.746
		c0,0.216,0.081,0.396,0.233,0.539c0.144,0.148,0.333,0.225,0.548,0.225c0.207,0,0.387-0.076,0.539-0.229
		c0.162-0.148,0.243-0.328,0.243-0.535V80.48h1.319l2.452,4.102C340.016,84.825,340.231,84.951,340.528,84.951 M329.479,83.509
		c-0.71,0-1.258-0.202-1.652-0.611c-0.387-0.404-0.584-0.966-0.584-1.68v-3.117c0-0.714,0.197-1.28,0.584-1.689
		c0.396-0.413,0.942-0.62,1.652-0.62c0.565,0,1.113,0.167,1.645,0.485c0.126,0.081,0.261,0.117,0.396,0.117
		c0.217,0,0.396-0.063,0.539-0.202c0.152-0.139,0.226-0.305,0.226-0.503c0-0.292-0.117-0.517-0.368-0.674
		c-0.719-0.445-1.536-0.665-2.435-0.665c-1.143,0-2.059,0.35-2.749,1.055c-0.701,0.696-1.042,1.617-1.042,2.753v2.987
		c0,1.137,0.341,2.048,1.042,2.753c0.69,0.701,1.606,1.051,2.749,1.051c0.97,0,1.851-0.171,2.632-0.517
		c0.368-0.166,0.557-0.454,0.557-0.867v-3.584c0-0.265-0.099-0.489-0.278-0.678c-0.188-0.184-0.413-0.278-0.674-0.278h-2.048
		c-0.207,0-0.387,0.072-0.53,0.22s-0.216,0.328-0.216,0.53c0,0.216,0.072,0.396,0.216,0.535c0.145,0.144,0.323,0.215,0.53,0.215
		h1.438v2.718C330.557,83.424,330.018,83.509,329.479,83.509"/>
	<path fill="#F26531" d="M311.808,75.985h1.852c0.503,0,0.889,0.148,1.158,0.44c0.27,0.296,0.403,0.701,0.403,1.222
		c0,0.579-0.151,0.983-0.448,1.226c-0.297,0.238-0.664,0.359-1.113,0.359h-1.852V75.985L311.808,75.985z M310.478,84.722
		c0.152,0.148,0.343,0.229,0.558,0.229c0.198,0,0.387-0.081,0.539-0.229c0.152-0.153,0.233-0.333,0.233-0.548V80.72h1.852
		c0.942,0,1.697-0.283,2.264-0.84c0.565-0.562,0.854-1.307,0.854-2.232c0-0.943-0.288-1.703-0.862-2.277
		c-0.584-0.58-1.33-0.872-2.255-0.872h-2.453c-0.261,0-0.485,0.094-0.674,0.283c-0.188,0.184-0.278,0.404-0.278,0.66v8.732
		C310.253,84.39,310.325,84.569,310.478,84.722 M303.668,75.985h1.851c0.504,0,0.891,0.148,1.149,0.44
		c0.27,0.296,0.404,0.701,0.404,1.222c0,0.579-0.145,0.983-0.439,1.226c-0.306,0.238-0.674,0.359-1.114,0.359h-1.851V75.985
		L303.668,75.985z M302.338,84.722c0.153,0.148,0.333,0.229,0.549,0.229c0.206,0,0.387-0.081,0.548-0.229
		c0.152-0.153,0.233-0.333,0.233-0.548V80.72h1.852c0.942,0,1.697-0.283,2.264-0.84c0.565-0.562,0.854-1.307,0.854-2.232
		c0-0.943-0.287-1.703-0.871-2.277c-0.574-0.58-1.319-0.872-2.245-0.872h-2.452c-0.271,0-0.494,0.094-0.674,0.283
		c-0.189,0.184-0.288,0.404-0.288,0.66v8.732C302.104,84.39,302.186,84.569,302.338,84.722 M295.395,80.733l1.275-3.558l1.275,3.558
		H295.395z M299.993,84.951c0.216,0,0.396-0.081,0.539-0.229c0.152-0.153,0.225-0.328,0.225-0.535c0-0.09-0.018-0.171-0.045-0.251
		l-3.233-9.011c-0.055-0.166-0.162-0.301-0.313-0.413c-0.153-0.104-0.313-0.162-0.494-0.162c-0.18,0-0.342,0.058-0.493,0.162
		c-0.154,0.112-0.253,0.242-0.314,0.395l-3.234,9.029c-0.027,0.09-0.045,0.17-0.045,0.251c0,0.216,0.072,0.396,0.225,0.543
		c0.145,0.144,0.323,0.22,0.521,0.22c0.359,0,0.593-0.166,0.729-0.503l0.809-2.232h3.61l0.79,2.232
		C299.4,84.785,299.634,84.951,299.993,84.951"/>
	<path fill="#F26531" d="M279.044,80.203h0.136h0.018h0.018h0.01h0.019h0.014h0.015h0.018h0.014h0.014h0.014h0.014h0.019h0.019h0.01
		h0.018h0.01h0.018h0.019h0.015h0.014h0.014h0.018h0.015h0.014h0.015h0.018h0.018h0.01h0.019h0.009h0.02h0.014h0.018h0.015h0.014
		h0.013h0.015h0.022h0.008h0.02h0.01h0.018h0.019h0.015h0.013h0.014h0.015h0.018h0.014h0.014h0.019h0.009h0.02h0.018h0.01h0.019
		h0.009h0.021h0.015h0.015h0.012h0.015h0.019h0.014h0.02h0.008h0.019h0.019h0.01h0.018h0.014h0.015h0.014h0.019h0.014h0.014h0.014
		h0.019h0.019h0.01h0.018h0.01h0.019h0.019h0.014h0.014h0.014h0.014h0.019h0.019h0.009h0.019h0.01h0.018h0.02h0.008h0.019h0.015
		h0.018h0.014h0.014h0.015h0.018h0.019c0.494,0,0.912,0.148,1.244,0.445c0.338,0.301,0.498,0.669,0.498,1.096
		c0,0.503-0.125,0.889-0.377,1.163c-0.261,0.274-0.638,0.409-1.131,0.409h-1.904v-3.113H279.044z M279.044,75.985h1.796
		c0.891,0,1.34,0.454,1.34,1.366c0,0.382-0.145,0.705-0.449,0.97c-0.297,0.265-0.67,0.395-1.109,0.395h-1.576L279.044,75.985
		L279.044,75.985z M283.172,83.967c0.562-0.562,0.85-1.298,0.85-2.223c0-0.998-0.422-1.779-1.268-2.35
		c0.655-0.539,0.982-1.222,0.982-2.043c0-0.849-0.264-1.541-0.799-2.066c-0.535-0.521-1.234-0.786-2.099-0.786h-2.397
		c-0.262,0-0.485,0.094-0.674,0.283c-0.185,0.184-0.279,0.404-0.279,0.656v8.422c0,0.256,0.096,0.481,0.279,0.665
		c0.188,0.188,0.412,0.278,0.674,0.278h2.507C281.864,84.803,282.609,84.524,283.172,83.967 M275.646,84.583
		c0.153-0.148,0.226-0.324,0.226-0.53c0-0.206-0.071-0.382-0.226-0.521c-0.151-0.139-0.332-0.216-0.539-0.216h-3.764v-3.113h3.469
		c0.215,0,0.395-0.072,0.547-0.215c0.145-0.139,0.217-0.314,0.217-0.521c0-0.216-0.072-0.396-0.217-0.539
		c-0.152-0.135-0.332-0.211-0.547-0.211h-3.469v-2.731h3.665c0.216,0,0.396-0.067,0.539-0.207c0.147-0.139,0.226-0.31,0.226-0.517
		c0-0.216-0.076-0.396-0.226-0.543c-0.144-0.144-0.323-0.22-0.539-0.22h-4.268c-0.261,0-0.484,0.094-0.675,0.283
		c-0.184,0.184-0.277,0.404-0.277,0.656v8.422c0,0.27,0.095,0.49,0.288,0.674c0.188,0.18,0.413,0.27,0.664,0.27h4.366
		C275.314,84.803,275.495,84.731,275.646,84.583 M264.68,84.767c0.151,0.125,0.331,0.184,0.521,0.184
		c0.18,0,0.351-0.059,0.517-0.184c0.167-0.126,0.274-0.274,0.311-0.445l2.382-9.011c0.018-0.081,0.026-0.144,0.026-0.193
		c0-0.211-0.072-0.381-0.226-0.534c-0.151-0.153-0.332-0.229-0.539-0.229c-0.171,0-0.332,0.049-0.467,0.153
		c-0.14,0.103-0.226,0.242-0.261,0.422l-1.743,6.801l-1.64-6.747c-0.05-0.175-0.158-0.324-0.313-0.445
		c-0.158-0.126-0.328-0.184-0.509-0.184c-0.188,0-0.367,0.058-0.529,0.184c-0.171,0.121-0.27,0.274-0.314,0.462l-1.644,6.702
		l-1.717-6.774c-0.046-0.18-0.136-0.319-0.273-0.422c-0.14-0.104-0.301-0.153-0.479-0.153c-0.198,0-0.368,0.072-0.521,0.22
		c-0.152,0.144-0.225,0.319-0.225,0.526c0,0.045,0.009,0.107,0.027,0.211l2.381,9.011c0.045,0.171,0.146,0.319,0.301,0.445
		c0.148,0.125,0.328,0.184,0.525,0.184c0.18,0,0.358-0.059,0.521-0.184c0.155-0.126,0.26-0.279,0.301-0.467l1.647-6.639l1.641,6.662
		C264.427,84.493,264.529,84.641,264.68,84.767"/>
</g>
</svg>
